<svg width="133" height="89" viewBox="0 0 133 89" fill="none" xmlns="http://www.w3.org/2000/svg">
<path d="M13.25 88.0625C8.83333 88.0625 5.52083 87.1875 3.3125 85.4375C1.10417 83.6458 0 81.4792 0 78.9375C0 77.0625 0.645833 75.75 1.9375 75C3.27083 74.2083 4.58333 73.8125 5.875 73.8125C6.58333 73.8125 7.27083 74.0208 7.9375 74.4375C8.64583 74.8542 9 75.5833 9 76.625C9 77.4167 8.64583 78.125 7.9375 78.75C7.27083 79.375 6.45833 79.6875 5.5 79.6875C4.95833 79.6875 4.41667 79.6667 3.875 79.625C3.375 79.5417 2.91667 79.3542 2.5 79.0625V79.5C2.5 81.5 3.35417 83.1458 5.0625 84.4375C6.8125 85.7292 9.70833 86.375 13.75 86.375C16.5417 86.375 19.3958 85.7708 22.3125 84.5625C25.2292 83.3542 28.2708 81.6667 31.4375 79.5C32.9792 78.375 34.5 77.2083 36 76C37.5417 74.7917 39.125 73.5208 40.75 72.1875C34.7083 69.9375 29.9583 66.8125 26.5 62.8125C23.0833 58.7708 21.2708 54.5417 21.0625 50.125C20.9375 47.2083 21.5625 44.5 22.9375 42C24.3125 39.4583 26.3958 37.3958 29.1875 35.8125C31.9792 34.2292 35.3958 33.4375 39.4375 33.4375C45.0625 33.4375 50.0208 35.1042 54.3125 38.4375C58.6042 41.7292 61.8958 45.8125 64.1875 50.6875L65.875 49C73.5833 41.2917 80.2708 34.8333 85.9375 29.625C91.6042 24.4167 96.4792 20.1667 100.562 16.875C104.646 13.5417 108.167 10.8958 111.125 8.9375C114.125 6.97917 116.771 5.39583 119.062 4.1875C122.146 2.5625 124.688 1.45833 126.688 0.875C128.688 0.291667 130.208 0 131.25 0C132 0 132.375 0.1875 132.375 0.5625C132.375 0.729167 131.958 0.979167 131.125 1.3125C130.5 1.52083 129.604 2.22917 128.438 3.4375C127.271 4.64583 125.562 6.70833 123.312 9.625C121.062 12.5 117.979 16.5417 114.062 21.75C110.188 26.9167 105.229 33.5417 99.1875 41.625C93.1875 49.6667 85.7917 59.4792 77 71.0625C84.5833 68.8125 91.2292 65.25 96.9375 60.375C102.646 55.5 106.708 49.8542 109.125 43.4375C109.625 42.1875 109.958 41.5625 110.125 41.5625C110.25 41.5625 110.438 41.75 110.688 42.125C110.979 42.4583 111.125 42.875 111.125 43.375C110.875 46.9583 109.854 50.125 108.062 52.875C106.271 55.5833 104.125 58.1667 101.625 60.625C98.2917 63.875 94.3125 66.6042 89.6875 68.8125C85.0625 70.9792 80.1667 72.6042 75 73.6875L64.3125 87.8125C63.0208 87.7292 61.6875 87.6458 60.3125 87.5625C58.9792 87.4792 57.8958 87.4375 57.0625 87.4375C56.3542 87.4375 55.7083 87.4792 55.125 87.5625C54.5833 87.6458 54.0208 87.7292 53.4375 87.8125C55.0208 85.8125 56.5833 83.875 58.125 82C59.6667 80.0833 61.1875 78.2083 62.6875 76.375C63.0208 75.875 63.25 75.4792 63.375 75.1875C62.7083 75.2292 62.0417 75.2708 61.375 75.3125C60.75 75.3125 60.1042 75.3125 59.4375 75.3125C56.3958 75.3125 53.4792 75.1042 50.6875 74.6875C47.9375 74.2708 45.3542 73.6875 42.9375 72.9375C39.9792 75.4375 37.375 77.5208 35.125 79.1875C32.9167 80.8542 31 82.1875 29.375 83.1875C26.7083 84.8542 24.0417 86.0833 21.375 86.875C18.7083 87.6667 16 88.0625 13.25 88.0625ZM66.875 71.25C78.625 56.8333 88.5 44.9375 96.5 35.5625C104.542 26.1875 111 18.8542 115.875 13.5625C120.75 8.22917 124.333 4.5 126.625 2.375C125.292 2.91667 123.896 3.5 122.438 4.125C121.021 4.75 119.312 5.66667 117.312 6.875C113.938 8.91667 110.021 11.75 105.562 15.375C101.146 18.9583 95.9375 23.4792 89.9375 28.9375C83.9792 34.3958 77.0208 41 69.0625 48.75L65.0625 52.625C65.8958 54.7083 66.5208 56.8542 66.9375 59.0625C67.3958 61.2708 67.625 63.4792 67.625 65.6875C67.625 67.5625 67.375 69.4167 66.875 71.25ZM42.25 70.9375C45.125 68.4792 48.2083 65.7292 51.5 62.6875C54.8333 59.6042 58.5833 56.0417 62.75 52C60.625 47.0417 57.5 43.0208 53.375 39.9375C49.2917 36.8542 44.6875 35.3125 39.5625 35.3125C36.8958 35.3125 34.4375 36 32.1875 37.375C29.9792 38.75 28.2083 40.5625 26.875 42.8125C25.5833 45.0208 24.9375 47.4167 24.9375 50C24.9375 54.3333 26.375 58.3958 29.25 62.1875C32.125 65.9792 36.4583 68.8958 42.25 70.9375ZM59.8125 73.5625C61.3125 73.5625 62.7708 73.5 64.1875 73.375C64.6875 72.0833 65.0417 70.7708 65.25 69.4375C65.5 68.1042 65.625 66.9792 65.625 66.0625C65.625 61.9375 64.9375 57.9375 63.5625 54.0625C59.7708 57.7292 56.2708 61.0208 53.0625 63.9375C49.8958 66.8125 47.0208 69.375 44.4375 71.625C48.9792 72.9167 54.1042 73.5625 59.8125 73.5625Z" fill="url(#paint0_linear_44_64)"/>
<path d="M13.25 88.0625C8.83333 88.0625 5.52083 87.1875 3.3125 85.4375C1.10417 83.6458 0 81.4792 0 78.9375C0 77.0625 0.645833 75.75 1.9375 75C3.27083 74.2083 4.58333 73.8125 5.875 73.8125C6.58333 73.8125 7.27083 74.0208 7.9375 74.4375C8.64583 74.8542 9 75.5833 9 76.625C9 77.4167 8.64583 78.125 7.9375 78.75C7.27083 79.375 6.45833 79.6875 5.5 79.6875C4.95833 79.6875 4.41667 79.6667 3.875 79.625C3.375 79.5417 2.91667 79.3542 2.5 79.0625V79.5C2.5 81.5 3.35417 83.1458 5.0625 84.4375C6.8125 85.7292 9.70833 86.375 13.75 86.375C16.5417 86.375 19.3958 85.7708 22.3125 84.5625C25.2292 83.3542 28.2708 81.6667 31.4375 79.5C32.9792 78.375 34.5 77.2083 36 76C37.5417 74.7917 39.125 73.5208 40.75 72.1875C34.7083 69.9375 29.9583 66.8125 26.5 62.8125C23.0833 58.7708 21.2708 54.5417 21.0625 50.125C20.9375 47.2083 21.5625 44.5 22.9375 42C24.3125 39.4583 26.3958 37.3958 29.1875 35.8125C31.9792 34.2292 35.3958 33.4375 39.4375 33.4375C45.0625 33.4375 50.0208 35.1042 54.3125 38.4375C58.6042 41.7292 61.8958 45.8125 64.1875 50.6875L65.875 49C73.5833 41.2917 80.2708 34.8333 85.9375 29.625C91.6042 24.4167 96.4792 20.1667 100.562 16.875C104.646 13.5417 108.167 10.8958 111.125 8.9375C114.125 6.97917 116.771 5.39583 119.062 4.1875C122.146 2.5625 124.688 1.45833 126.688 0.875C128.688 0.291667 130.208 0 131.25 0C132 0 132.375 0.1875 132.375 0.5625C132.375 0.729167 131.958 0.979167 131.125 1.3125C130.5 1.52083 129.604 2.22917 128.438 3.4375C127.271 4.64583 125.562 6.70833 123.312 9.625C121.062 12.5 117.979 16.5417 114.062 21.75C110.188 26.9167 105.229 33.5417 99.1875 41.625C93.1875 49.6667 85.7917 59.4792 77 71.0625C84.5833 68.8125 91.2292 65.25 96.9375 60.375C102.646 55.5 106.708 49.8542 109.125 43.4375C109.625 42.1875 109.958 41.5625 110.125 41.5625C110.25 41.5625 110.438 41.75 110.688 42.125C110.979 42.4583 111.125 42.875 111.125 43.375C110.875 46.9583 109.854 50.125 108.062 52.875C106.271 55.5833 104.125 58.1667 101.625 60.625C98.2917 63.875 94.3125 66.6042 89.6875 68.8125C85.0625 70.9792 80.1667 72.6042 75 73.6875L64.3125 87.8125C63.0208 87.7292 61.6875 87.6458 60.3125 87.5625C58.9792 87.4792 57.8958 87.4375 57.0625 87.4375C56.3542 87.4375 55.7083 87.4792 55.125 87.5625C54.5833 87.6458 54.0208 87.7292 53.4375 87.8125C55.0208 85.8125 56.5833 83.875 58.125 82C59.6667 80.0833 61.1875 78.2083 62.6875 76.375C63.0208 75.875 63.25 75.4792 63.375 75.1875C62.7083 75.2292 62.0417 75.2708 61.375 75.3125C60.75 75.3125 60.1042 75.3125 59.4375 75.3125C56.3958 75.3125 53.4792 75.1042 50.6875 74.6875C47.9375 74.2708 45.3542 73.6875 42.9375 72.9375C39.9792 75.4375 37.375 77.5208 35.125 79.1875C32.9167 80.8542 31 82.1875 29.375 83.1875C26.7083 84.8542 24.0417 86.0833 21.375 86.875C18.7083 87.6667 16 88.0625 13.25 88.0625ZM66.875 71.25C78.625 56.8333 88.5 44.9375 96.5 35.5625C104.542 26.1875 111 18.8542 115.875 13.5625C120.75 8.22917 124.333 4.5 126.625 2.375C125.292 2.91667 123.896 3.5 122.438 4.125C121.021 4.75 119.312 5.66667 117.312 6.875C113.938 8.91667 110.021 11.75 105.562 15.375C101.146 18.9583 95.9375 23.4792 89.9375 28.9375C83.9792 34.3958 77.0208 41 69.0625 48.75L65.0625 52.625C65.8958 54.7083 66.5208 56.8542 66.9375 59.0625C67.3958 61.2708 67.625 63.4792 67.625 65.6875C67.625 67.5625 67.375 69.4167 66.875 71.25ZM42.25 70.9375C45.125 68.4792 48.2083 65.7292 51.5 62.6875C54.8333 59.6042 58.5833 56.0417 62.75 52C60.625 47.0417 57.5 43.0208 53.375 39.9375C49.2917 36.8542 44.6875 35.3125 39.5625 35.3125C36.8958 35.3125 34.4375 36 32.1875 37.375C29.9792 38.75 28.2083 40.5625 26.875 42.8125C25.5833 45.0208 24.9375 47.4167 24.9375 50C24.9375 54.3333 26.375 58.3958 29.25 62.1875C32.125 65.9792 36.4583 68.8958 42.25 70.9375ZM59.8125 73.5625C61.3125 73.5625 62.7708 73.5 64.1875 73.375C64.6875 72.0833 65.0417 70.7708 65.25 69.4375C65.5 68.1042 65.625 66.9792 65.625 66.0625C65.625 61.9375 64.9375 57.9375 63.5625 54.0625C59.7708 57.7292 56.2708 61.0208 53.0625 63.9375C49.8958 66.8125 47.0208 69.375 44.4375 71.625C48.9792 72.9167 54.1042 73.5625 59.8125 73.5625Z" fill="#FFC300"/>
<defs>
<linearGradient id="paint0_linear_44_64" x1="0" y1="61.75" x2="145" y2="61.75" gradientUnits="userSpaceOnUse">
<stop stop-color="#DDBA47"/>
<stop offset="0.495192" stop-color="#D0633F"/>
<stop offset="1" stop-color="#FFC300"/>
</linearGradient>
</defs>
</svg>
